<svg width="52" height="45" viewBox="0 0 52 45" fill="none" xmlns="http://www.w3.org/2000/svg">
<path fill-rule="evenodd" clip-rule="evenodd" d="M32.7642 24.6562C32.9444 24.7245 33.1236 24.7956 33.3019 24.8694C34.3208 25.2915 35.2988 25.8 36.2255 26.3883C38.1814 27.6297 40.8203 27.6779 42.4585 26.0398C44.0966 24.4017 44.1121 21.7151 42.2439 20.3452C40.4735 19.047 38.5498 17.9628 36.5123 17.1188C33.1794 15.7383 29.6072 15.0277 25.9997 15.0277C25.9001 15.0277 25.8004 15.0282 25.7009 15.0293L32.7642 24.6562ZM20.0781 24.359L14.938 17.3533C13.1034 18.1603 11.366 19.1642 9.75548 20.3452C7.88728 21.7151 7.90285 24.4017 9.54095 26.0398C11.1791 27.6779 13.818 27.6297 15.7739 26.3883C16.7006 25.8 17.6786 25.2915 18.6975 24.8694C19.1517 24.6813 19.6122 24.5111 20.0781 24.359ZM23.1765 11.5887C24.1134 11.5019 25.0554 11.4583 25.9996 11.4583C30.0194 11.4583 33.9999 12.25 37.7137 13.7883C40.1722 14.8067 42.482 16.139 44.5871 17.7479C46.3713 19.1114 48.9315 19.1366 50.5194 17.5488C52.1072 15.961 52.1193 13.3675 50.3739 11.9548C47.4859 9.61728 44.2711 7.70282 40.8255 6.27561C36.1251 4.32864 31.0873 3.32655 25.9996 3.32655C23.2241 3.32655 20.4633 3.6248 17.7641 4.212L23.1765 11.5887ZM7.92826 7.79949L12.806 14.4476C10.897 15.3594 9.08959 16.4659 7.41211 17.7479C5.628 19.1114 3.06771 19.1366 1.47989 17.5488C-0.107921 15.961 -0.12004 13.3675 1.62537 11.9548C3.58574 10.3681 5.69672 8.97627 7.92826 7.79949ZM22.3647 27.4754L32.5594 41.3703C30.9472 43.1707 28.6048 44.3037 25.9978 44.3037C21.1348 44.3037 17.1926 40.3615 17.1926 35.4985C17.1926 31.931 19.3143 28.8589 22.3647 27.4754Z" fill="black"/>
<line x1="9.67534" y1="1.75031" x2="39.1773" y2="41.9597" stroke="#B80000" stroke-width="4.18852"/>
</svg>