<svg width="16" height="23" viewBox="0 0 16 23" fill="none" xmlns="http://www.w3.org/2000/svg">
<path d="M4.65498 14.9532V15.4532H5.15498H9.55819H10.0582V14.9532V14.5054C10.0582 14.0577 10.1284 13.7083 10.248 13.4405L10.2493 13.4375C10.3745 13.152 10.5609 12.8954 10.8158 12.6665L10.8158 12.6665L10.8199 12.6628C11.0925 12.4124 11.4379 12.1625 11.8619 11.9151C12.5005 11.5437 13.064 11.1295 13.5492 10.6708L13.5494 10.6707C14.0556 10.1918 14.4516 9.63822 14.7339 9.01209C15.0298 8.36347 15.1704 7.62834 15.1704 6.81847C15.1704 5.56026 14.8442 4.47342 14.1611 3.59277C13.4937 2.72614 12.5885 2.08995 11.4677 1.67611C10.3574 1.25992 9.10884 1.05701 7.72974 1.05701C6.46701 1.05701 5.29635 1.26867 4.22372 1.69885C3.12973 2.13129 2.24294 2.81872 1.57599 3.75764C0.891156 4.71539 0.563399 5.93425 0.550314 7.37366L0.545727 7.8782H1.05029H5.82666H6.32666V7.3782C6.32666 7.0998 6.39006 6.87645 6.50262 6.69156C6.6319 6.4896 6.79636 6.33492 7.00031 6.22119C7.2102 6.10754 7.43808 6.04975 7.69242 6.04975C7.93104 6.04975 8.13487 6.09923 8.31341 6.19068C8.49078 6.28152 8.62477 6.4044 8.72498 6.56305C8.81821 6.71068 8.87161 6.88957 8.87161 7.11699C8.87161 7.37026 8.8056 7.582 8.67864 7.76821L8.67859 7.76817L8.67427 7.77472C8.53062 7.99267 8.3238 8.21128 8.04172 8.42699L8.0417 8.42697L8.03793 8.42992C7.7399 8.66238 7.39715 8.90612 7.00871 9.16107C6.51369 9.4823 6.08785 9.84859 5.73623 10.2619C5.35754 10.7006 5.08958 11.2629 4.91425 11.9237C4.73673 12.5929 4.65498 13.4594 4.65498 14.5054V14.9532ZM5.22122 20.8201L5.2212 20.8201L5.22556 20.8244C5.83517 21.4193 6.57932 21.7222 7.43122 21.7222C7.97927 21.7222 8.49287 21.584 8.96248 21.3082L8.9625 21.3082L8.96751 21.3052C9.42745 21.0278 9.80145 20.6572 10.0854 20.1989C10.384 19.7208 10.5359 19.1896 10.5432 18.6165H10.5434L10.5433 18.6057C10.5358 17.7575 10.2096 17.0238 9.58701 16.43C8.97788 15.8431 8.25275 15.5354 7.43122 15.5354C6.57932 15.5354 5.83518 15.8382 5.22556 16.4332L5.22556 16.4332L5.2234 16.4353C4.61947 17.0318 4.31279 17.7661 4.31913 18.6102C4.31283 19.4687 4.61649 20.2154 5.22122 20.8201Z" fill="#FFCE48" stroke="#734411"/>
</svg>